<svg width="1200" height="400" xmlns="http://www.w3.org/2000/svg"><defs><linearGradient id="a" gradientTransform="rotate(90)"><stop offset="5%" stop-color="#6464be"/><stop offset="95%" stop-color="#8a8ace"/></linearGradient><linearGradient id="b" gradientTransform="rotate(90)"><stop offset="5%" stop-color="#7f86f3"/><stop offset="95%" stop-color="#9fa4f6"/></linearGradient><linearGradient id="c" gradientTransform="rotate(90)"><stop offset="5%" stop-color="#b7baf9"/><stop offset="95%" stop-color="#c9cbfa"/></linearGradient><linearGradient id="d" gradientTransform="rotate(90)"><stop offset="5%" stop-color="#efedff"/><stop offset="95%" stop-color="#f3f1ff"/></linearGradient></defs><path fill="#494289" d="M0 0h1200v400H0z"/><path d="M0 80c14.067 2.84 28.135 5.679 43 4 14.865-1.679 30.528-7.875 44-10 13.472-2.125 24.754-.177 39 3 14.246 3.177 31.456 7.583 46 7 14.544-.583 26.422-6.157 41-8s31.855.044 46 0 25.159-2.02 39-2c13.841.02 30.51 2.036 45 4 14.49 1.964 26.803 3.877 41 3 14.197-.877 30.279-4.544 45-7 14.721-2.456 28.081-3.702 42-1s28.396 9.35 43 9c14.604-.35 29.335-7.7 43-7 13.665.7 26.264 9.45 41 9 14.736-.45 31.61-10.098 46-12 14.39-1.902 26.3 3.944 40 6s29.194.322 44-1c14.806-1.322 28.925-2.23 43 0s28.106 7.6 42 9c13.894 1.4 27.652-1.17 42-4 14.348-2.83 29.288-5.92 44-7s29.197-.148 44 2 29.926 5.512 44 8c14.074 2.488 27.1 4.1 41 1 13.9-3.1 28.674-10.914 43-11 14.326-.086 28.203 7.554 42 9 13.797 1.446 27.513-3.301 42-5 14.487-1.699 29.743-.35 85 1l-40 320H0Z" fill="url(#a)"/><path d="M0 160c14.428-1.036 28.855-2.071 43 0s28.007 7.25 42 6c13.993-1.25 28.118-8.925 43-11 14.882-2.075 30.523 1.452 45 4s27.791 4.117 41 3 26.313-4.921 41-7c14.687-2.079 30.957-2.432 46-3 15.043-.568 28.86-1.352 43 1 14.14 2.352 28.606 7.838 43 9 14.394 1.162 28.715-2 42-3s25.534.165 40 0c14.466-.165 31.15-1.66 46-2 14.85-.34 27.866.472 42 1s29.386.773 43 2c13.614 1.227 25.591 3.436 40 5 14.409 1.564 31.25 2.482 46 2 14.75-.482 27.411-2.363 42-4 14.589-1.637 31.106-3.03 45-5 13.894-1.97 25.166-4.514 39-5 13.834-.486 30.23 1.085 45 3s27.913 4.172 42 3c14.087-1.172 29.117-5.775 43-6 13.883-.225 26.619 3.927 41 7s30.409 5.066 45 3c14.591-2.066 27.746-8.193 42-8 14.254.193 29.607 6.706 44 9 14.393 2.294 27.827.37 42-1 14.173-1.37 29.087-2.185 84-3l-40 240H0Z" fill="url(#b)"/><path d="M0 240c14.747.308 29.495.616 44 1 14.505.384 28.768.843 43 2s28.435 3.011 43 2c14.565-1.011 29.493-4.888 43-8 13.507-3.112 25.594-5.458 40-5 14.406.458 31.133 3.719 46 6s27.875 3.583 41 3c13.125-.583 26.366-3.051 41-3 14.634.051 30.662 2.621 45 5 14.338 2.379 26.987 4.566 41 3 14.013-1.566 29.39-6.884 44-9 14.61-2.116 28.45-1.029 42-2 13.55-.971 26.81-4 42-3 15.19 1 32.313 6.029 47 8 14.687 1.971 26.94.885 40 1 13.06.115 26.929 1.43 42 2 15.071.57 31.345.397 46 0 14.655-.397 27.69-1.016 41-3 13.31-1.984 26.897-5.331 41-3 14.103 2.331 28.724 10.342 44 10 15.276-.342 31.207-9.037 45-13 13.793-3.963 25.446-3.193 39-2 13.554 1.193 29.007 2.81 44 5 14.993 2.19 29.526 4.954 44 6 14.474 1.046 28.89.373 43-1s27.914-3.447 42-5c14.086-1.553 28.453-2.587 43-2 14.547.587 29.273 2.793 84 5l-40 160H0Z" fill="url(#c)"/><path d="M0 320c14.682-4.274 29.365-8.548 43-7 13.635 1.548 26.224 8.918 41 11 14.776 2.082 31.739-1.125 46-5s25.82-8.419 39-7c13.18 1.419 27.978 8.8 43 9 15.022.2 30.267-6.784 45-7 14.733-.216 28.955 6.336 43 9 14.045 2.664 27.914 1.439 42-2 14.086-3.439 28.39-9.092 43-8 14.61 1.092 29.526 8.93 44 11 14.474 2.07 28.504-1.628 42-5 13.496-3.372 26.456-6.417 41-5 14.544 1.417 30.671 7.297 45 7 14.329-.297 26.858-6.77 41-8 14.142-1.23 29.895 2.786 45 6s29.562 5.625 43 6c13.438.375 25.855-1.288 40-3s30.016-3.473 45-3c14.984.473 29.08 3.178 43 5 13.92 1.822 27.664 2.759 42 1 14.336-1.759 29.264-6.214 44-6 14.736.214 29.281 5.098 43 7 13.719 1.902 26.61.82 41-3s30.276-10.38 45-11c14.724-.62 28.287 4.7 42 8 13.713 3.3 27.577 4.58 42 5 14.423.42 29.407-.023 44-1s28.797-2.488 83-4l-40 80H0Z" fill="url(#d)"/></svg>