<svg width="1920" height="1080" viewBox="0 0 1920 1080" xmlns="http://www.w3.org/2000/svg"><rect width="1920" height="1080" fill="#ab8dc9"/><path d="M1920,1080C1640.8333333333333,1122.8333333333333,280.6666666666667,1111.1666666666667,0,1080C-280.6666666666667,1048.8333333333333,156.66666666666669,929.5,236,893C315.3333333333333,856.5,397,848,476,861C555,874,630,954,710,971C790,988,875.8333333333334,950,956,963C1036.1666666666667,976,1112,1067.3333333333333,1191,1049C1270,1030.6666666666667,1349.3333333333333,890.6666666666666,1430,853C1510.6666666666667,815.3333333333334,1593.3333333333333,785.1666666666666,1675,823C1756.6666666666667,860.8333333333334,2199.1666666666665,1037.1666666666667,1920,1080C1640.8333333333333,1122.8333333333333,280.6666666666667,1111.1666666666667,0,1080" fill="#c4b5b9"/></svg>