<svg width="1920" height="1080" viewBox="0 0 1920 1080" xmlns="http://www.w3.org/2000/svg"><rect width="1920" height="1080" fill="#6c3795"/><path d="M1920,1080C1640.6666666666667,1118.6666666666667,280.1666666666667,1118,0,1080C-280.1666666666667,1042,160.83333333333331,887.3333333333334,239,852C317.1666666666667,816.6666666666666,390.8333333333333,854.5,469,868C547.1666666666666,881.5,628.1666666666666,921.8333333333334,708,933C787.8333333333334,944.1666666666666,866.8333333333334,939.5,948,935C1029.1666666666667,930.5,1113.6666666666667,889.3333333333334,1195,906C1276.3333333333333,922.6666666666666,1355.8333333333333,1044.6666666666667,1436,1035C1516.1666666666667,1025.3333333333333,1595.3333333333333,840.5,1676,848C1756.6666666666667,855.5,2199.3333333333335,1041.3333333333333,1920,1080C1640.6666666666667,1118.6666666666667,280.1666666666667,1118,0,1080" fill="#514343"/></svg>